<svg xmlns="http://www.w3.org/2000/svg" viewBox="0 0 500 500"><g id="freepik--background-complete--inject-98"><rect x="62.77" y="59.04" width="35.16" height="11.19" style="fill:#ebebeb"></rect><rect x="194.2" y="252.96" width="35.16" height="11.19" style="fill:#ebebeb"></rect><path d="M78.32,44.93c-5.84.1-20.81.35-26.45.42l-8.71,0,.46-.46,0,11.19-.5-.5c5.84,0,20.73.08,26.37.16l8.79.11-.24.23.24-11.19Zm0,0,.23,11.19v.24h-.24c-4.39.06-13.2.16-17.58.19l-17.58.07h-.5v-.5l0-11.19v-.45h.45l8.87,0c5.6.06,20.5.31,26.29.41Z" style="fill:#ebebeb"></path><path d="M392.72,332.21c-5.84.09-20.81.34-26.44.41l-8.71,0,.45-.45,0,11.19-.49-.5,17.57.06c4.38,0,13.21.14,17.58.2l-.23.24.23-11.19Zm0,0L393,343.4v.23h-.25c-4.38.06-13.19.16-17.58.2l-17.57.06h-.51v-.5l0-11.19v-.46h.46l8.86,0c5.6.06,20.51.32,26.29.42Z" style="fill:#ebebeb"></path><path d="M373.11,318.1c-5.84.09-20.81.34-26.45.41l-8.71,0,.46-.45,0,11.19-.5-.5c5.84,0,20.73.07,26.37.15l8.79.11-.24.24.24-11.19Zm0,0,.24,11.19v.23h-.24c-4.39.06-13.19.16-17.58.2l-17.58.06h-.5v-.5l.05-11.19v-.46H338l8.87,0c5.6.06,20.51.32,26.29.42Z" style="fill:#ebebeb"></path><rect x="318.42" y="332.21" width="35.16" height="11.19" style="fill:#ebebeb"></rect><rect x="421.68" y="44.93" width="35.16" height="11.19" style="fill:#ebebeb"></rect><rect x="402.07" y="436.89" width="35.16" height="11.19" style="fill:#ebebeb"></rect><path d="M456.84,422.78c-5.84.1-20.81.35-26.45.42l-8.71,0,.46-.46,0,11.19-.5-.5c5.84,0,20.73.07,26.37.16l8.79.1-.24.24.24-11.19Zm0,0,.24,11.19v.24h-.24c-4.39.06-13.19.16-17.58.19l-17.58.07h-.5V434l.05-11.19v-.46h.45l8.87,0c5.6.06,20.51.31,26.29.41Z" style="fill:#ebebeb"></path><path d="M97.93,436.89c-5.84.1-20.81.35-26.45.41l-8.71.05.46-.46,0,11.19-.5-.5c5.84,0,20.73.07,26.37.15l8.79.11-.24.24.24-11.19Zm0,0,.24,11.19v.24h-.24c-4.39.06-13.2.16-17.58.19l-17.58.07h-.5v-.5l0-11.19v-.46h.45l8.87,0c5.6.06,20.5.31,26.29.41Z" style="fill:#ebebeb"></path><rect x="425.05" width="1" height="64.47" style="fill:#c7c7c7"></rect><polygon points="388.88 99.82 391.83 106.3 459.27 106.3 462.22 99.82 433.5 79.94 417.59 79.94 388.88 99.82" style="fill:#ebebeb"></polygon><polygon points="415.6 60.79 417.59 79.94 433.5 79.94 435.49 60.79 415.6 60.79" style="fill:#dbdbdb"></polygon><polygon points="388.88 99.82 391.83 106.31 459.28 106.31 462.22 99.82 388.88 99.82" style="fill:#dbdbdb"></polygon><rect x="73.95" width="1" height="64.47" style="fill:#c7c7c7"></rect><polygon points="37.78 99.82 40.73 106.3 108.18 106.3 111.12 99.82 82.41 79.94 66.5 79.94 37.78 99.82" style="fill:#ebebeb"></polygon><polygon points="64.5 60.79 66.5 79.94 82.41 79.94 84.4 60.79 64.5 60.79" style="fill:#dbdbdb"></polygon><polygon points="37.78 99.82 40.73 106.31 108.18 106.31 111.12 99.82 37.78 99.82" style="fill:#dbdbdb"></polygon></g><g id="freepik--Floor--inject-98"><path d="M44.54,469.19c131.63-.61,279.29-.62,410.92,0-131.63.62-279.29.61-410.92,0Z" style="fill:#263238"></path></g><g id="freepik--Board--inject-98"><rect x="106.92" y="68.35" width="286.01" height="173.03" style="fill:#ebebeb"></rect><rect x="100.11" y="53.12" width="299.78" height="15.23" style="fill:#263238"></rect><rect x="106.92" y="68.35" width="286.01" height="7.18" style="fill:#dbdbdb"></rect><polygon points="127.77 88.93 205.92 88.76 284.07 88.93 205.92 89.09 127.77 88.93" style="fill:#c7c7c7"></polygon><polygon points="127.77 95.3 205.92 95.13 284.07 95.3 205.92 95.47 127.77 95.3" style="fill:#c7c7c7"></polygon><polygon points="127.77 101.67 205.92 101.5 284.07 101.67 205.92 101.84 127.77 101.67" style="fill:#c7c7c7"></polygon><polygon points="127.77 108.05 205.92 107.88 284.07 108.05 205.92 108.22 127.77 108.05" style="fill:#c7c7c7"></polygon><polygon points="127.77 114.42 205.92 114.25 284.07 114.42 205.92 114.59 127.77 114.42" style="fill:#c7c7c7"></polygon><polygon points="127.77 120.79 205.92 120.63 284.07 120.79 205.92 120.96 127.77 120.79" style="fill:#c7c7c7"></polygon><polygon points="127.77 127.17 205.92 127 284.07 127.17 205.92 127.34 127.77 127.17" style="fill:#c7c7c7"></polygon><polygon points="127.77 133.54 205.92 133.37 284.07 133.54 205.92 133.71 127.77 133.54" style="fill:#c7c7c7"></polygon><polygon points="127.77 139.91 205.92 139.75 284.07 139.91 205.92 140.08 127.77 139.91" style="fill:#c7c7c7"></polygon><polygon points="127.77 146.29 205.92 146.12 284.07 146.29 205.92 146.46 127.77 146.29" style="fill:#c7c7c7"></polygon><polygon points="127.77 152.66 205.92 152.49 284.07 152.66 205.92 152.83 127.77 152.66" style="fill:#c7c7c7"></polygon><polygon points="127.77 159.03 205.92 158.87 284.07 159.03 205.92 159.2 127.77 159.03" style="fill:#c7c7c7"></polygon><polygon points="127.77 165.41 205.92 165.24 284.07 165.41 205.92 165.58 127.77 165.41" style="fill:#c7c7c7"></polygon><polygon points="127.77 171.78 205.92 171.61 284.07 171.78 205.92 171.95 127.77 171.78" style="fill:#c7c7c7"></polygon><polygon points="127.77 178.16 205.92 177.99 284.07 178.16 205.92 178.32 127.77 178.16" style="fill:#c7c7c7"></polygon><rect x="144.29" y="133.54" width="11.85" height="52.05" style="fill:#455a64"></rect><rect x="166.28" y="111.53" width="11.85" height="74.06" style="fill:#7E57C2"></rect><rect x="188.27" y="101.53" width="11.85" height="84.06" style="fill:#455a64"></rect><rect x="210.26" y="114.57" width="11.85" height="71.02" style="fill:#7E57C2"></rect><rect x="232.24" y="118.44" width="11.85" height="67.14" style="fill:#455a64"></rect><rect x="254.23" y="156.49" width="11.85" height="29.1" style="fill:#7E57C2"></rect><path d="M132,84.45l.26,25.29.18,25.28q.18,25.29.18,50.57L132,185l38,0,38,.07,38,.21,38,.37-38,.37-38,.2-38,.08-38,0h-.63v-.62c0-16.86.06-33.71.19-50.57l.18-25.28Z" style="fill:#c7c7c7"></path><rect x="144.29" y="190.93" width="11.85" height="1.07" style="fill:#c7c7c7"></rect><rect x="166.28" y="190.93" width="11.85" height="1.07" style="fill:#c7c7c7"></rect><rect x="188.27" y="190.93" width="11.85" height="1.07" style="fill:#c7c7c7"></rect><rect x="210.26" y="190.93" width="11.85" height="1.07" style="fill:#c7c7c7"></rect><rect x="232.24" y="190.93" width="11.85" height="1.07" style="fill:#c7c7c7"></rect><rect x="254.23" y="190.93" width="11.85" height="1.07" style="fill:#c7c7c7"></rect><rect x="143.82" y="209.21" width="27.62" height="2.37" style="fill:#c7c7c7"></rect><rect x="143.82" y="214.17" width="37.32" height="2.37" style="fill:#c7c7c7"></rect><rect x="143.82" y="219.13" width="19.8" height="2.37" style="fill:#c7c7c7"></rect><rect x="131.9" y="209.21" width="5.76" height="5.76" style="fill:#455a64"></rect><rect x="209.38" y="209.21" width="32.83" height="2.37" style="fill:#c7c7c7"></rect><rect x="209.38" y="214.17" width="25.97" height="2.37" style="fill:#c7c7c7"></rect><rect x="209.38" y="219.13" width="37.32" height="2.37" style="fill:#c7c7c7"></rect><rect x="197.46" y="209.21" width="5.76" height="5.76" style="fill:#7E57C2"></rect><path d="M337.18,108.84a12.65,12.65,0,1,1-1.67-6.3A12.67,12.67,0,0,1,337.18,108.84Z" style="fill:#455a64"></path><path d="M335.51,102.54l-11,6.3V96.17A12.66,12.66,0,0,1,335.51,102.54Z" style="fill:#7E57C2"></path><circle cx="324.51" cy="108.84" r="8.76" transform="translate(176.92 417.66) rotate(-83)" style="fill:#fff"></circle><rect x="320.86" y="106.89" width="7.3" height="1.03" style="fill:#263238"></rect><rect x="319.06" y="109.75" width="10.91" height="1.03" style="fill:#a6a6a6"></rect><path d="M337.18,141.56a11.48,11.48,0,0,1-.14,1.86,12.65,12.65,0,1,1,.14-1.86Z" style="fill:#455a64"></path><path d="M337.18,141.56a11.48,11.48,0,0,1-.14,1.86l-12.53-1.86V128.89a12.65,12.65,0,0,1,12.67,12.67Z" style="fill:#7E57C2"></path><circle cx="324.51" cy="141.56" r="8.76" style="fill:#fff"></circle><rect x="320.86" y="139.61" width="7.3" height="1.03" style="fill:#263238"></rect><rect x="319.05" y="142.48" width="10.91" height="1.03" style="fill:#a6a6a6"></rect><path d="M337.18,174.28a12.66,12.66,0,0,1-8.13,11.83,12.45,12.45,0,0,1-4.54.84,12.68,12.68,0,1,1,12.67-12.67Z" style="fill:#455a64"></path><path d="M337.18,174.28a12.66,12.66,0,0,1-8.13,11.83l-4.54-11.83V161.61a12.65,12.65,0,0,1,12.67,12.67Z" style="fill:#7E57C2"></path><circle cx="324.51" cy="174.28" r="8.76" style="fill:#fff"></circle><rect x="320.86" y="172.33" width="7.3" height="1.03" style="fill:#263238"></rect><rect x="319.06" y="175.2" width="10.91" height="1.03" style="fill:#a6a6a6"></rect><path d="M337.18,207a12.65,12.65,0,1,1-1.67-6.3A12.63,12.63,0,0,1,337.18,207Z" style="fill:#455a64"></path><path d="M337.18,207a12.66,12.66,0,0,1-20.89,9.64l8.22-9.64V194.33A12.65,12.65,0,0,1,337.18,207Z" style="fill:#7E57C2"></path><circle cx="324.51" cy="207" r="8.76" transform="translate(79.48 503.85) rotate(-83)" style="fill:#fff"></circle><rect x="320.86" y="205.06" width="7.3" height="1.03" style="fill:#263238"></rect><rect x="319.05" y="207.92" width="10.91" height="1.03" style="fill:#a6a6a6"></rect><rect x="344.9" y="104.94" width="35.13" height="0.98" style="fill:#c7c7c7"></rect><rect x="344.9" y="108.35" width="35.13" height="0.98" style="fill:#c7c7c7"></rect><rect x="344.9" y="111.76" width="35.13" height="0.98" style="fill:#c7c7c7"></rect><rect x="344.9" y="137.66" width="35.13" height="0.98" style="fill:#c7c7c7"></rect><rect x="344.9" y="141.07" width="35.13" height="0.98" style="fill:#c7c7c7"></rect><rect x="344.9" y="144.49" width="35.13" height="0.98" style="fill:#c7c7c7"></rect><rect x="344.9" y="170.38" width="35.13" height="0.98" style="fill:#c7c7c7"></rect><rect x="344.9" y="173.8" width="35.13" height="0.98" style="fill:#c7c7c7"></rect><rect x="344.9" y="177.21" width="35.13" height="0.98" style="fill:#c7c7c7"></rect><rect x="344.9" y="203.1" width="35.13" height="0.98" style="fill:#c7c7c7"></rect><rect x="344.9" y="206.52" width="35.13" height="0.98" style="fill:#c7c7c7"></rect><rect x="344.9" y="209.93" width="35.13" height="0.98" style="fill:#c7c7c7"></rect><path d="M297.15,89.09c.31,42.42.31,90,0,132.41-.31-42.41-.31-90,0-132.41Z" style="fill:#c7c7c7"></path></g><g id="freepik--Desk--inject-98"><polygon points="333.15 361.5 335.68 376.67 352.81 469.19 355.57 469.19 343.11 376.67 341.27 361.5 333.15 361.5" style="fill:#dbdbdb"></polygon><polygon points="341.27 361.5 333.15 361.5 335.68 376.67 343.11 376.67 341.27 361.5" style="fill:#c7c7c7"></polygon><polygon points="279.35 469.19 282.11 469.19 299.24 376.67 301.77 361.5 293.64 361.5 291.8 376.67 279.35 469.19" style="fill:#dbdbdb"></polygon><polygon points="293.64 361.5 291.8 376.67 299.24 376.67 301.77 361.5 293.64 361.5" style="fill:#c7c7c7"></polygon><polygon points="227.96 469.19 230.72 469.19 247.85 376.67 250.38 361.5 242.25 361.5 240.41 376.67 227.96 469.19" style="fill:#dbdbdb"></polygon><polygon points="240.41 376.67 247.85 376.67 250.38 361.5 242.25 361.5 240.41 376.67" style="fill:#c7c7c7"></polygon><polygon points="232.34 368.63 357.88 368.63 357.88 358.45 310.88 355.4 295.09 264.29 237.12 264.29 232.34 368.63" style="fill:#dbdbdb"></polygon><polygon points="232.34 368.63 239.18 368.63 243.64 264.29 237.12 264.29 232.34 368.63" style="fill:#c7c7c7"></polygon><rect x="194.15" y="305.59" width="83.55" height="163.5" style="fill:#455a64"></rect><rect x="194.15" y="305.59" width="83.55" height="10.01" style="fill:#263238"></rect><rect x="158.28" y="297.51" width="298.4" height="8.08" transform="translate(614.96 603.1) rotate(180)" style="fill:#455a64"></rect><polygon points="438.87 305.59 439.13 315.59 442.65 469.08 449.04 469.08 449.04 305.59 438.87 305.59" style="fill:#455a64"></polygon><polygon points="449.04 305.59 438.87 305.59 439.13 315.59 449.04 315.59 449.04 305.59" style="fill:#263238"></polygon><rect x="165.84" y="305.59" width="28.31" height="163.5" style="fill:#37474f"></rect><rect x="165.84" y="305.59" width="28.31" height="10.01" style="fill:#263238"></rect><rect x="282.09" y="294.75" width="65.88" height="2.95" style="fill:#455a64"></rect><rect x="282.09" y="294.75" width="33.16" height="2.95" style="fill:#263238"></rect><polygon points="317.81 297.7 382.01 297.69 391.07 254.08 326.87 254.09 317.81 297.7" style="fill:#263238"></polygon><polygon points="320.91 297.7 385.11 297.69 394.17 254.08 329.97 254.09 320.91 297.7" style="fill:#37474f"></polygon><path d="M354.64,276.84a3.12,3.12,0,0,0,3.15,3.52,4,4,0,0,0,3.88-3.52,3.1,3.1,0,0,0-3.14-3.51A4,4,0,0,0,354.64,276.84Z" style="fill:#fff"></path></g><g id="freepik--Character--inject-98"><path d="M177.76,470.72c-2.25.75-66.43.56-68.88-1-.92-.58-1.44-9.94-1.75-21.25Q107,444.8,107,441c0-3-.08-6.11-.1-9.1-.08-13.4.1-25.21.1-25.21h41.79l0,25.21V441l-.22,7.53s24.55,11.07,27,13.06S180,470,177.76,470.72Z" style="fill:#eb9481"></path><path d="M177.76,470.72c-2.24.75-66.44.56-68.87-1-.87-.54-1.38-8.69-1.69-18.94,5.15,2.38,49.53,11.49,60,11.61,10,.1-5.93-8-8.49-9.25,7.07,3.28,15.45,7.27,16.85,8.39C178,463.53,180,470,177.76,470.72Z" style="fill:#263238"></path><path d="M84.41,215s21.9,110,23.44,118.12c.36,1.85-4.23,108.54-4.23,108.54h47.92s0-94.24-1.94-110.46S122.84,215,122.84,215Z" style="fill:#263238"></path><path d="M84.41,215S95.06,268.53,102,303.66L122.84,215Z" style="fill:#37474f"></path><path d="M143.57,429.88c-.68-26.63-1.25-70.18-2-96.71-2.73-15.28-7.32-37.39-10.24-52.72l-4.05-21.12c5.23,23.93,10.83,49.59,15.26,73.75.83,32.27.9,64.52,1,96.8Z" style="fill:#455a64"></path><path d="M122.61,471.18c-2.26.72-66.44-.08-68.87-1.66-.92-.59-1.35-9.95-1.54-21.27-.05-2.44,1.59-41.61,1.59-41.61l40.44.18-.65,41.83S118,460,120.49,462,124.85,470.46,122.61,471.18Z" style="fill:#eb9481"></path><path d="M122.6,471.18c-2.25.73-66.43-.08-68.86-1.66-.82-.53-1.24-8-1.47-17.56,9.3,2.8,49,10,58.75,9.88,8.88-.09-2.71-6.16-7.3-8.41,7,3.34,15.37,7.41,16.76,8.55C123,464,124.86,470.46,122.6,471.18Z" style="fill:#263238"></path><path d="M96.93,442.51H48.13s9.24-72.08,10-84.19c.37-6.18,4.31-73.26,7.89-103A56.84,56.84,0,0,1,71.92,215h51s-.81,22-6.66,36.67A89.65,89.65,0,0,0,103,257.55s-2.57,91.63-3.39,107.36C98.53,384.92,96.93,442.51,96.93,442.51Z" style="fill:#263238"></path><path d="M90,436.89c1-29.28,3.71-69.69,4.76-99.1.54-23.86,1.32-53.25,2.14-77.14-.21,23.93-.71,53.29-1.19,77.18-1,29.45-3.87,69.78-5.71,99.06Z" style="fill:#455a64"></path><path d="M125.26,176.07l-3.3-.17a9.4,9.4,0,0,0-.61-2.61c-1.29-3.26-3.92-5.86-6-8.49,0,0,0,0,0,0a31.22,31.22,0,0,1,4.69,9,9.17,9.17,0,0,1,.37,2l-2.06-.1A12.91,12.91,0,0,0,116.8,170c0-.05-.12,0-.09.08a12.34,12.34,0,0,1,.93,5.65l-17.86-.91a32.13,32.13,0,0,1-.42-5c0-.19-.27-.17-.26,0a43.44,43.44,0,0,0,.22,5l-1.49-.08A34.9,34.9,0,0,1,98.3,166a.07.07,0,1,0-.13,0,41.37,41.37,0,0,0-1.11,8.63L84.7,174a36.8,36.8,0,0,0,1.85-5.64.11.11,0,1,0-.22,0A27.49,27.49,0,0,1,84,174l-1.83-.09a30.8,30.8,0,0,0,2.93-10c0-.14-.21-.15-.23,0-.53,3.76-2.39,6.86-4.25,9.95L76,173.58c1.68-2.89,4.54-5.5,5-8.93.51-3.84-2.89-5.7-3.85-9-1.63-5.43,1.12-9.43,4.55-13.11,3.15-3.4,2.9-7.33,3.74-11.69a29,29,0,0,1,3.28-9.55A14.55,14.55,0,0,1,103,114.16a11.15,11.15,0,0,1,5.9,1.88l0,0a2.63,2.63,0,0,1,.35.26,15.17,15.17,0,0,1,4.63,5.86l0,0a23,23,0,0,1,1,2.3,45.08,45.08,0,0,1,1,5.64.44.44,0,0,0,0,.13,16.3,16.3,0,0,0,6,10.26c4.88,4,3.42,10.35-.68,16.69-1.74,2.69-1.83,4.44-1.18,5.93v0a6.1,6.1,0,0,0,.29.57c.94,1.65,2.67,3.1,3.84,5.36A13.33,13.33,0,0,1,125.26,176.07Z" style="fill:#263238"></path><path d="M95.42,115.39a16.44,16.44,0,0,0-8.1,9.6c-1.09,3.32-1.24,6.93-2.67,10.14-1.35,3-3.69,5.29-5.58,7.9-2.51,3.44-4.11,7.68-2.1,11.67,1.25,2.47,4,4.93,3.87,8.06-.2,3.65-3.39,7.15-5.12,10.16-.08.14.12.3.22.16,2.34-3.39,6.43-7.85,5.09-12.34-.61-2.05-2-3.63-3-5.39-2.08-3.41-1.61-7,.48-10.5,2.83-4.7,6.56-7.7,7.84-13.36.73-3.24,1.06-6.57,2.72-9.5a16.55,16.55,0,0,1,6.47-6.39C95.62,115.54,95.53,115.33,95.42,115.39Z" style="fill:#263238"></path><path d="M122.64,168.21c-1.33-1.92-3-3.34-2.23-6.25.52-2,1.9-3.74,2.85-5.52,2.38-4.46,3.76-10.08,1.5-14.68-1.27-2.6-3.48-3.24-5.33-5.15-2.25-2.3-3.05-5.85-3.76-9.11-1.06-4.89-2.4-10.47-7.33-11.61,0,0-.06.06,0,.07,6.28,1.88,6.19,10.14,8,15.86a12.78,12.78,0,0,0,2.81,5.21c2.14,2.2,4.75,2.95,5.84,6.35a15.28,15.28,0,0,1-.63,9.9c-1,2.76-2.91,5.07-3.89,7.82a6,6,0,0,0,0,4.86c.62,1.18,1.68,2,2.34,3.12a9.48,9.48,0,0,1,1.16,5.18c0,.18.25.16.26,0A9.5,9.5,0,0,0,122.64,168.21Z" style="fill:#263238"></path><path d="M113.5,160c20.51,18.08,39.56,37.92,41.15,48.13,2.2,14.15-6.47,18.17-10.37,18.26-10.63.22-30.43-42.65-37.33-59C100.25,151.49,109,156.05,113.5,160Z" style="fill:#7E57C2"></path><path d="M122.53,198.48l.31,16.51-50.7,0s.4-38.12,13.53-54.52c6.82-8.53,14.74-7.71,20.22-2.46,1.39,1.33,16.81,19.88,18.74,28A16.77,16.77,0,0,1,122.53,198.48Z" style="fill:#ebebeb"></path><path d="M111.92,196.56a44.3,44.3,0,0,0-6.42,1.5c-1,.34-2.06.73-3.07,1.14-.5.21-1,.4-1.53.58a6.69,6.69,0,0,1-1.65.43,0,0,0,0,0,0,.08,10.82,10.82,0,0,0,1.61-.14,11.15,11.15,0,0,0,1.51-.39c1.06-.34,2.1-.73,3.16-1.07,2.12-.71,4.25-1.41,6.42-2C112.06,196.71,112,196.54,111.92,196.56Z" style="fill:#263238"></path><path d="M117.46,198.13a49.57,49.57,0,0,0-5.45.1c-.9.08-1.8.2-2.69.35l-1.28.23c-.47.09-.93.25-1.4.33,0,0,0,.09,0,.08.44-.07.9-.06,1.35-.1l1.35-.13c.9-.08,1.81-.15,2.71-.25,1.8-.18,3.6-.34,5.41-.46A.08.08,0,0,0,117.46,198.13Z" style="fill:#263238"></path><polygon points="124.66 219.68 68.61 219.68 70.99 213.16 122.81 213.16 124.66 219.68" style="fill:#7E57C2"></polygon><polygon points="124.66 219.68 68.61 219.68 70.99 213.16 122.81 213.16 124.66 219.68" style="opacity:0.30000000000000004"></polygon><path d="M116.49,220.82H102.05V212h14.44Zm-12.44-2h10.44V214H104.05Z" style="fill:#7E57C2"></path><path d="M104.69,156.78s11.12,25.69,11.78,29.79S121.9,253,121.9,253s10.31-4.43,10.42-4.87-9.62-48.79-9.48-49.25,4.63-5.39,2.11-12.39C119.51,171.28,104.69,156.78,104.69,156.78Z" style="fill:#7E57C2"></path><path d="M118,203.83l1.68-23.11-6-6.05,3.13-.61s-11.08-16-12.19-17.28c.26.7,8.35,19.37,9.91,24.61C115.92,185.81,118.14,202.87,118,203.83Z" style="fill:#7E57C2"></path><path d="M118,203.83l1.68-23.11-6-6.05,3.13-.61s-11.08-16-12.19-17.28c.26.7,8.35,19.37,9.91,24.61C115.92,185.81,118.14,202.87,118,203.83Z" style="opacity:0.2"></path><path d="M91.64,155.33s6.12,32.12,6.55,35.07.91,64.52.91,64.52l-39.83-6.83,11.14-33.74c.25-.75,4.17-37.34,12.1-50.22C87.37,156.24,91.64,155.33,91.64,155.33Z" style="fill:#7E57C2"></path><path d="M95.78,211a1.3,1.3,0,0,1-2.6,0,1.3,1.3,0,0,1,2.6,0Zm0,0a.93.93,0,0,0-1.85,0,.93.93,0,1,0,1.85,0Z" style="fill:#263238"></path><path d="M95.78,223a1.3,1.3,0,0,1-2.6,0,1.3,1.3,0,0,1,2.6,0Zm0,0a.93.93,0,0,0-1.85,0,.93.93,0,1,0,1.85,0Z" style="fill:#263238"></path><path d="M95.78,234.93a1.3,1.3,0,0,1-2.6,0,1.3,1.3,0,0,1,2.6,0Zm0,0a.93.93,0,0,0-1.85,0,.93.93,0,1,0,1.85,0Z" style="fill:#263238"></path><path d="M95.78,246.92a1.3,1.3,0,0,1-2.6,0,1.3,1.3,0,0,1,2.6,0Zm0,0a.93.93,0,1,0-1.85,0,.93.93,0,0,0,1.85,0Z" style="fill:#263238"></path><path d="M92.9,157.7c.27,1,5.35,7.61,10.07,7.28,1.53-.11,1.3-8.52,1.3-8.52l.12-.62,1.74-8.74-10.37-6.31-1.5-.83s-.32,2.42-.68,5.44c0,.14,0,.28,0,.43a4.44,4.44,0,0,0-.07.49c-.06.45-.12.91-.17,1.37s-.08.69-.11,1.06-.06.73-.1,1.1A57.11,57.11,0,0,0,92.9,157.7Z" style="fill:#eb9481"></path><path d="M93.58,145.4a17.87,17.87,0,0,0,10.81,10.44l1.74-8.74-10.37-6.31-1.5-.83S93.94,142.38,93.58,145.4Z" style="fill:#263238"></path><path d="M118.35,135.47c-.63,15.62-10.06,17-13.43,16.87-3.06-.13-13.46-1-14.45-16.56S97,115.53,104,115.45,119,119.84,118.35,135.47Z" style="fill:#eb9481"></path><path d="M115.3,133.67a9.58,9.58,0,0,1-1-.37,1.7,1.7,0,0,1-1-.57.55.55,0,0,1,.09-.67,1.38,1.38,0,0,1,1.39-.14,2,2,0,0,1,1.17.89A.6.6,0,0,1,115.3,133.67Z" style="fill:#263238"></path><path d="M104.63,132.62a9.63,9.63,0,0,0,1.08-.08,1.73,1.73,0,0,0,1.09-.29.56.56,0,0,0,.09-.67,1.38,1.38,0,0,0-1.31-.51,2.08,2.08,0,0,0-1.36.54A.6.6,0,0,0,104.63,132.62Z" style="fill:#263238"></path><path d="M106.58,136.77s-.09,0-.1.08c-.08,1.07-.36,2.27-1.36,2.51,0,0,0,.07,0,.06C106.31,139.39,106.67,137.79,106.58,136.77Z" style="fill:#263238"></path><path d="M105.75,135.55c-1.69-.32-2.21,3.09-.64,3.38S107.17,135.82,105.75,135.55Z" style="fill:#263238"></path><path d="M105.06,135.63c-.33.15-.67.44-1,.43s-.68-.43-.9-.82c0,0-.05,0-.06,0a1.26,1.26,0,0,0,.73,1.56c.62.18,1.17-.32,1.43-1C105.27,135.77,105.19,135.57,105.06,135.63Z" style="fill:#263238"></path><path d="M112.72,137s.08.06.07.11c-.21,1-.26,2.28.64,2.78,0,0,0,.07,0,.06C112.27,139.63,112.36,138,112.72,137Z" style="fill:#263238"></path><path d="M113.84,136.08c1.71.14,1.3,3.56-.29,3.43S112.4,136,113.84,136.08Z" style="fill:#263238"></path><path d="M114.52,136.39c.25.21.48.58.8.64s.69-.27,1-.6c0,0,.06,0,0,0-.06.65-.36,1.31-1,1.36s-.94-.57-1-1.24C114.31,136.48,114.42,136.3,114.52,136.39Z" style="fill:#263238"></path><path d="M105.83,145.29c.21.3.39.69.76.79a2.62,2.62,0,0,0,1.18,0,0,0,0,0,1,0,.07,1.45,1.45,0,0,1-1.44.3,1.15,1.15,0,0,1-.64-1.09C105.72,145.26,105.8,145.25,105.83,145.29Z" style="fill:#263238"></path><path d="M110.16,144.14a4.34,4.34,0,0,1-1.84,1.22,2,2,0,0,1-1.19,0c-.84-.29-.8-1.08-.59-1.74a4.57,4.57,0,0,1,.46-1A5.7,5.7,0,0,0,110.16,144.14Z" style="fill:#263238"></path><path d="M108.32,145.36a2,2,0,0,1-1.19,0c-.84-.29-.8-1.08-.59-1.74A2,2,0,0,1,108.32,145.36Z" style="fill:#ff9cbd"></path><path d="M110.79,142.09s0,1.61-.11,2.36c0,.07-.19.07-.45.05h0a3.58,3.58,0,0,1-3.25-1.8.08.08,0,0,1,.12-.09,5.36,5.36,0,0,0,3.11,1.38c.08-.2-.09-2.76,0-2.75a6.56,6.56,0,0,1,1.64.62c.1-3.35-.34-6.69-.18-10a.1.1,0,0,1,.2,0,54.37,54.37,0,0,1,.65,10.79C112.52,143,111.07,142.26,110.79,142.09Z" style="fill:#263238"></path><path d="M90.8,137.36a6.35,6.35,0,0,0,4.44-4.47,16.7,16.7,0,0,0,7.65-4.16c-.16.29-1.31,2.42-1.93,3.49,10-.05,14.32-6.9,14.32-6.9a17.06,17.06,0,0,1,3.1,6.89s1.14-5.92-1.19-10.44a9.7,9.7,0,0,0-8.1-5.53A13.87,13.87,0,0,0,95,117.93C87.51,123.62,90.8,137.36,90.8,137.36Z" style="fill:#263238"></path><path d="M108.59,132a18,18,0,0,1-5.28.93s0,0,0,0a15.36,15.36,0,0,0,7.87-3,14.54,14.54,0,0,0,2.61-2.53,10.36,10.36,0,0,0,1.95-3.45c0-.1.17-.06.15,0a12,12,0,0,1-1.46,3.66,10.73,10.73,0,0,1-2.73,2.81,12,12,0,0,1-3.11,1.57" style="fill:#263238"></path><path d="M93.16,136.12s-2.77-5.28-5.12-4.35-.71,8.27,1.75,9.56a2.65,2.65,0,0,0,3.7-1Z" style="fill:#eb9481"></path><path d="M88.56,133.86s-.06,0,0,.07c1.71,1,2.45,2.76,2.9,4.59a1.47,1.47,0,0,0-2.12-.68s0,.11,0,.11a1.61,1.61,0,0,1,1.7.79,7.56,7.56,0,0,1,.67,1.54c.06.17.37.12.33-.07v0C92.39,137.87,91,134.41,88.56,133.86Z" style="fill:#263238"></path><path d="M91.89,155.21A12.07,12.07,0,0,1,97.72,154c2.24.06,6.79,2.76,6.79,2.76s5.66,20.67,2.33,20.85C102.73,177.87,91.42,156.05,91.89,155.21Z" style="fill:#eb9481"></path><path d="M85.13,158.26c-19.1,15-37.86,40.92-38,55.42C47,228,52,226.6,53.39,226.51c8.65-.57,29-40.4,35.21-56.63S89.85,154.55,85.13,158.26Z" style="fill:#7E57C2"></path><path d="M64.88,215.33c1-1.8,2-3.59,3-5.4l3-5.42c2-3.62,4-7.22,5.87-10.87s3.88-7.27,5.76-10.93q1.42-2.73,2.78-5.51c.93-1.84,1.78-3.71,2.64-5.59a109.67,109.67,0,0,1-4.73,11.44c-1.75,3.74-3.65,7.41-5.57,11.06s-4,7.24-6.08,10.78S67.25,212,64.88,215.33Z" style="fill:#263238"></path><path d="M85.9,176.41a18.45,18.45,0,0,1,1.17-1.87c.22-.29.42-.59.65-.88s.44-.58.7-.86a5.46,5.46,0,0,1-.94,2A6.09,6.09,0,0,1,85.9,176.41Z" style="fill:#263238"></path><path d="M148.67,187.2c-1-6.72-3-16.08-5.44-18s-11.79-8.84-14.44-9.72-14.51-5.25-16.67-4c-1.72,1,.39,5.56,6,7.69a83.15,83.15,0,0,1,8.93,4.22c1.45.61,5,5.23,4,7.31-.54,1.22-4.07,2.68-6.28,1.71s-2.8-5.32-5.33-7.34-7-1.73-7.21-.53,1.23,1.74,3.54,5.79c1.49,2.6,1.65,8.87,5,13.34a76.76,76.76,0,0,1,4.65,8.23Z" style="fill:#eb9481"></path><path d="M117.14,167.25a4.38,4.38,0,0,1-2.21-1,2,2,0,0,1-.51-.89,2.16,2.16,0,0,1,0-.57.84.84,0,0,1,.21-.53s0-.09,0,0-.14.17-.2.27a.75.75,0,0,0-.13.25,1.71,1.71,0,0,0-.09.55,1.89,1.89,0,0,0,.45,1.11,3.06,3.06,0,0,0,2.54.89A0,0,0,0,0,117.14,167.25Z" style="fill:#263238"></path><path d="M143.23,169.18c-2.17-3.34-7.71-9.34-13.15-11.36-3.68-1.37-16.23,4.91-15.83,7.31s2.54,2.4,5.73,2c1.16-.15,7.28-2.42,8.34-1.14,1.53,1.84,3.51,8.15,3.51,8.15Z" style="fill:#eb9481"></path><path d="M114.55,164.19c1.53-2.6,4.94-4,8.34-5.13,0,0,.08.06,0,.08-.87.28-6.39,2.9-8.33,5.09C114.57,164.25,114.53,164.22,114.55,164.19Z" style="fill:#263238"></path><path d="M143.23,169.18c-2.17-3.34-7.71-9.34-13.15-11.36-3.68-1.37-13.57,6.6-13.18,9s3.49,2.57,6.9,1.34c1.1-.39,4.78-3,5.84-1.76,1.52,1.83,5.24,6.4,5.24,6.4Z" style="fill:#eb9481"></path><path d="M132.73,170c-.34-.53-.46-.71-.82-1.23s-.73-1-1.12-1.52a4.58,4.58,0,0,0-1.14-1.18,2.44,2.44,0,0,0-1.52-.29,8.71,8.71,0,0,0-3.25,1.48c-1.11.65-3.43,1.72-5.22,1.55a3.42,3.42,0,0,1-1.41-.36,2.28,2.28,0,0,1-.85-.67c-.79-1.3.16-2.81,1.14-3.88a22.65,22.65,0,0,1,6.67-4.66c.59-.3,1.19-.58,1.78-.86a5.26,5.26,0,0,1,2.16-.64c1.24,0,3.28,1.22,3.92,1.59.05,0,.08-.05,0-.08-.76-.47-2.67-2-4.67-1.87a6.46,6.46,0,0,0-2.07.72c-.7.31-1.38.64-2.06,1a28.7,28.7,0,0,0-3.79,2.29,12,12,0,0,0-3.08,3,3.47,3.47,0,0,0-.18,3.57,3,3,0,0,0,2.26,1.18,6,6,0,0,0,1.58,0,24.7,24.7,0,0,0,3.41-1c1.08-.44,2-1.19,3.17-1.54a2.12,2.12,0,0,1,1.62.09,6,6,0,0,1,1.22,1.09,17.19,17.19,0,0,1,2,2.38C132.72,170.26,132.88,170.19,132.73,170Z" style="fill:#263238"></path><path d="M144.85,172.09c-.8-1.59-2.2-8.16-3.49-10.17s-7.17-8.92-9.87-8.59c-3.41.41.21,6.51,2,9s1.55,6.81,1.55,6.81Z" style="fill:#eb9481"></path><path d="M131,158.19c.64.79,1.21,1.67,1.77,2.52a20.68,20.68,0,0,1,1.55,2.49A8.78,8.78,0,0,1,135,166c0,.47.07.95.08,1.42s0,1.05,0,1.56c0,.06-.09.07-.09,0a22.52,22.52,0,0,0-.4-2.82,12,12,0,0,0-.88-2.8c-.82-1.78-2-3.35-2.83-5.12C130.83,158.18,130.93,158.13,131,158.19Z" style="fill:#263238"></path><path d="M135,169.88a9.77,9.77,0,0,1-.82,4.79,17.45,17.45,0,0,1-1.07,2.22,20.12,20.12,0,0,1-1.39,2,18.72,18.72,0,0,0-2.44,4,19.25,19.25,0,0,0-1.26,4.58,12.72,12.72,0,0,1,.56-4.85,14.7,14.7,0,0,1,2.34-4.32,23.43,23.43,0,0,0,2.51-4A14.37,14.37,0,0,0,135,169.88Z" style="fill:#263238"></path><path d="M143.29,225.92c-6.64-.9-11-12-18.56-31.53-1.33-3.42,16-24.49,18.38-21.34,3,4,11,26,11.81,32C156.58,216.91,151,227,143.29,225.92Z" style="fill:#eb9481"></path><path d="M128.73,205.29l21.4-20.79s6.08,17.89,5.51,25.39-3.18,16.05-12.21,16.52C136.67,226.76,128.73,205.29,128.73,205.29Z" style="fill:#7E57C2"></path><path d="M135.65,219.68c-.77-1.1-1.46-2.24-2.13-3.39s-1.29-2.34-1.9-3.53-1.15-2.41-1.65-3.65a24.33,24.33,0,0,1-1.24-3.82c.57,1.21,1.17,2.39,1.77,3.58l1.8,3.56c.58,1.19,1.17,2.38,1.73,3.59S135.15,218.44,135.65,219.68Z" style="fill:#263238"></path><path d="M133.34,208.91c1-1.14,2.18-2.19,3.28-3.27s2.22-2.14,3.35-3.2c2.26-2.1,4.52-4.19,6.82-6.25.63-.57,1.26-1.13,1.9-1.68s1.44-1.1,2.11-1.7c0,0,.13,0,.08.08-.55.53-1,1.13-1.56,1.67s-1.12,1.11-1.69,1.65c-1.11,1.06-2.24,2.12-3.36,3.17-2.26,2.11-4.52,4.21-6.84,6.24-1.31,1.15-2.6,2.34-4,3.41A.08.08,0,0,1,133.34,208.91Z" style="fill:#263238"></path><polygon points="91.51 202.99 125.96 205.55 136.09 157.28 101.64 154.72 91.51 202.99" style="fill:#263238"></polygon><polygon points="93.2 203.12 127.65 205.68 137.78 157.4 103.33 154.84 93.2 203.12" style="fill:#455a64"></polygon><path d="M120.18,178.46a3.75,3.75,0,0,1-3.9,3.08,3,3,0,0,1-2.81-3.57,3.75,3.75,0,0,1,3.9-3.08A3,3,0,0,1,120.18,178.46Z" style="fill:#fff"></path><path d="M51.4,226.48c6.4.88,14.38-4.09,35.06-19.19C89.32,205.2,80,181,76.84,183.11c-4,2.62-18.93,13.62-19.92,14.56C48.57,205.62,47.06,225.88,51.4,226.48Z" style="fill:#eb9481"></path><path d="M69.45,190.42s5.89-8.26,10.33-11.65a35.89,35.89,0,0,1,15.91-6.43c6.2-.91,21.81,1.17,22,5.77.17,4.16-15.69,1.23-15.69,1.23s16.66.32,15.94,5.38-18.93.6-18.93.6,17.11.71,15.54,5.81c-1.18,3.85-17.9.75-17.9.75s14.7.71,13.65,4.72c-1.15,4.44-16.77,2.54-16.77,2.54-4.38,9.75-10.65,12.5-15.21,14C77.21,213.52,69.45,190.42,69.45,190.42Z" style="fill:#eb9481"></path><path d="M96.25,178.86c2,0,3.94-.08,5.89.06s3.91.35,5.84.68a32.77,32.77,0,0,1,7.4,2c-4.35-1.36-11.34-2-13.29-2.11s-3.9-.38-5.85-.52A0,0,0,0,1,96.25,178.86Z" style="fill:#263238"></path><path d="M95.61,185.91c2.5.07,5,0,7.49.22s4.83.56,7.3.9c.19,0,.12.12-.08.1-2.48-.24-4.79-.28-7.27-.5s-5-.53-7.45-.66C95.57,186,95.57,185.91,95.61,185.91Z" style="fill:#263238"></path><path d="M94,191.86a56.21,56.21,0,0,1,11.42,1.21c.19,0,.08.14-.12.12-3.79-.47-6.76-.87-11.3-1.2C93.91,192,93.89,191.86,94,191.86Z" style="fill:#263238"></path><path d="M69.45,187.14l8.15,29.69s-21.86,12.88-26.69,9.47-1.67-20.55,3.79-27.09C57,196.48,69.45,187.14,69.45,187.14Z" style="fill:#7E57C2"></path><path d="M69.72,188.13l-.32-1,.08,0c-2.06,1.69-4.13,3.36-6.18,5.06s-4.09,3.4-6,5.2a28.15,28.15,0,0,0-2.77,2.8,24.14,24.14,0,0,0-2.21,3.25,25.25,25.25,0,0,0-2.63,7.45,20.9,20.9,0,0,1,2.14-7.71A18.48,18.48,0,0,1,54,199.81a31,31,0,0,1,2.8-2.92c2-1.8,4.06-3.49,6.16-5.13s4.28-3.18,6.5-4.66l.07,0v.07Z" style="fill:#263238"></path><path d="M64.66,194.51c.5,1.45.88,3,1.29,4.45s.81,3,1.19,4.47c.76,3,1.5,6,2.2,9,.19.82.38,1.64.56,2.47s.27,1.79.47,2.67a.06.06,0,0,1-.11,0c-.2-.73-.5-1.44-.72-2.17s-.42-1.51-.62-2.27c-.4-1.49-.79-3-1.17-4.48-.76-3-1.51-6-2.17-9-.37-1.7-.8-3.41-1.07-5.13A.08.08,0,1,1,64.66,194.51Z" style="fill:#263238"></path><path d="M76.88,214.19c.38.91.71,1.82,1,2.74l-.17.12A38.52,38.52,0,0,1,67.89,222c3.15-1.92,6.35-3.65,9.58-5.37l-.12.29c-.18-.9-.34-1.8-.47-2.71Z" style="fill:#263238"></path></g><g id="freepik--chart-2--inject-98"><polygon points="435.16 176.01 435.16 237.48 379.92 237.48 371.69 248.14 371.69 237.48 371.69 176.01 435.16 176.01" style="fill:#fff"></polygon><path d="M435.16,176c.08,15.45.23,46.26.24,61.71,0,.09-55.36,0-55.48.1l.27-.13L372,248.36l-.66.85v-1.07c.07-.34.06-72.08.11-72.37,15.95,0,47.78.13,63.72.24Zm0,0c-15.83.12-47.65.22-63.47.25.64-1.54.17,72.21.36,71.88l-.65-.22,8.25-10.65.1-.14h.17c-.15.09,56.35-.24,55,.35,0-15.32.16-46.15.25-61.47Z" style="fill:#263238"></path><rect x="371.69" y="176.01" width="63.47" height="3.9" style="fill:#37474f"></rect><path d="M375.37,178a.74.74,0,1,1-.74-.74A.74.74,0,0,1,375.37,178Z" style="fill:#c7c7c7"></path><path d="M378.39,178a.74.74,0,1,1-.74-.74A.74.74,0,0,1,378.39,178Z" style="fill:#fff"></path><path d="M381.41,178a.74.74,0,1,1-.74-.74A.74.74,0,0,1,381.41,178Z" style="fill:#7E57C2"></path><path d="M405.88,189.7l-4.17,14.61V219.5a15.19,15.19,0,0,1,0-30.38A15.44,15.44,0,0,1,405.88,189.7Z" style="fill:#7E57C2"></path><path d="M410.7,216.55a15,15,0,0,1-9,2.95V204.31Z" style="fill:#c7c7c7"></path><path d="M416.9,204.31a15.17,15.17,0,0,1-6.2,12.24l-9-12.24,11.81-9.55A15.14,15.14,0,0,1,416.9,204.31Z" style="fill:#37474f"></path><path d="M416.9,189.84l-11.81,9.55,4.17-14.61A15.22,15.22,0,0,1,416.9,189.84Z" style="fill:#263238"></path><rect x="386.2" y="226.87" width="2.45" height="2.45" style="fill:#263238"></rect><rect x="390.36" y="226.87" width="26.86" height="0.72" style="fill:#455a64"></rect><rect x="390.36" y="228.6" width="17.36" height="0.72" style="fill:#455a64"></rect></g><g id="freepik--chart-1--inject-98"><polygon points="188.2 73.58 188.2 135.05 132.96 135.05 124.73 145.71 124.73 135.05 124.73 73.58 188.2 73.58" style="fill:#fff"></polygon><path d="M188.2,73.58c.08,15.45.23,46.26.24,61.71,0,.09-55.36,0-55.48.1l.28-.13L125,145.93l-.66.85v-1.07c.07-.34.06-72.08.11-72.38,16,0,47.78.14,63.72.25Zm0,0c-15.83.12-47.65.22-63.47.25.64-1.54.17,72.21.36,71.88l-.65-.23,8.25-10.64.11-.14H133c-.15.09,56.35-.24,55,.34,0-15.31.16-46.14.25-61.46Z" style="fill:#263238"></path><rect x="140.96" y="125.63" width="2.45" height="2.45" style="fill:#7E57C2"></rect><rect x="145.11" y="125.63" width="26.86" height="0.72" style="fill:#455a64"></rect><rect x="145.11" y="127.36" width="17.36" height="0.72" style="fill:#455a64"></rect><path d="M135.32,89.9c7.05-.07,14.1-.05,21.14-.08s14.1,0,21.14.08c-7,.06-14.09,0-21.14.07S142.37,90,135.32,89.9Z" style="fill:#455a64"></path><path d="M135.32,95.85c7.05-.06,14.1,0,21.14-.07s14.1,0,21.14.07c-7,.06-14.09.05-21.14.07S142.37,95.91,135.32,95.85Z" style="fill:#455a64"></path><path d="M135.32,101.81c7.05-.06,14.1,0,21.14-.07s14.1,0,21.14.07c-7,.06-14.09,0-21.14.07S142.37,101.87,135.32,101.81Z" style="fill:#455a64"></path><path d="M135.32,107.77c7.05-.07,14.1,0,21.14-.08s14.1,0,21.14.08c-7,.06-14.09,0-21.14.07S142.37,107.83,135.32,107.77Z" style="fill:#455a64"></path><path d="M135.32,113.72c7.05-.06,14.1,0,21.14-.07s14.1,0,21.14.07c-7,.06-14.09,0-21.14.07S142.37,113.78,135.32,113.72Z" style="fill:#455a64"></path><path d="M143.84,86c.06,5.57,0,11.13.07,16.7s0,11.13-.07,16.7c-.07-5.57-.05-11.13-.08-16.7S143.77,91.59,143.84,86Z" style="fill:#455a64"></path><path d="M151.15,86c.06,5.57,0,11.13.07,16.7s0,11.13-.07,16.7c-.06-5.57-.05-11.13-.07-16.7S151.09,91.59,151.15,86Z" style="fill:#455a64"></path><path d="M158.46,86c.06,5.57,0,11.13.07,16.7s0,11.13-.07,16.7c-.06-5.57-.05-11.13-.07-16.7S158.4,91.59,158.46,86Z" style="fill:#455a64"></path><path d="M165.77,86c.06,5.57,0,11.13.07,16.7s0,11.13-.07,16.7c-.06-5.57-.05-11.13-.07-16.7S165.71,91.59,165.77,86Z" style="fill:#455a64"></path><path d="M173.08,86c.06,5.57,0,11.13.07,16.7s0,11.13-.07,16.7c-.06-5.57,0-11.13-.07-16.7S173,91.59,173.08,86Z" style="fill:#455a64"></path><path d="M136.39,109.4c1.29,0,2.06-6.05,3.89-6.05s2,4.42,3.56,4.42,1.49-7.76,3.56-7.76,1.58,3.15,3.75,3.15,1.34-7.31,3.61-7.31,1.34,10.07,3.7,10.07c1.49,0,2.07-3.2,3.85-3.2,1.18,0,1.87,1.6,3.41,1.6s1.88-6.15,3.8-6.15,2.15,3.64,3.56,3.64,1.93-6,4.52-6v23.57H136.39Z" style="fill:#7E57C2;opacity:0.5"></path><path d="M136.39,109.69v-.58c.39,0,.93-1.41,1.32-2.45.68-1.77,1.37-3.6,2.57-3.6s1.71,1.34,2.21,2.53c.39.92.8,1.88,1.35,1.88s.89-1.86,1.2-3.22c.5-2.23,1-4.53,2.36-4.53,1.19,0,1.66.9,2.08,1.7s.75,1.45,1.67,1.45,1.15-1.71,1.47-3.36c.37-1.94.75-4,2.14-4s1.72,2.53,2.09,5.21c.3,2.16.67,4.86,1.61,4.86.56,0,1-.67,1.5-1.37.6-.86,1.27-1.83,2.35-1.83a2.75,2.75,0,0,1,1.64.78,2.92,2.92,0,0,0,1.77.82c.54,0,1-1.46,1.41-2.64.58-1.73,1.17-3.51,2.39-3.51s1.81,1.16,2.34,2.18c.38.75.74,1.46,1.22,1.46s.87-1.13,1.28-2.13c.69-1.71,1.56-3.83,3.24-3.83v.58c-1.3,0-2,1.84-2.71,3.47-.56,1.39-1,2.49-1.81,2.49s-1.27-.86-1.74-1.77-1-1.87-1.82-1.87-1.35,1.66-1.84,3.12c-.54,1.62-1,3-2,3a3.37,3.37,0,0,1-2.12-.94,2.29,2.29,0,0,0-1.29-.66c-.78,0-1.33.8-1.87,1.58s-1.12,1.62-2,1.62c-1.44,0-1.8-2.61-2.19-5.36-.29-2.1-.65-4.71-1.51-4.71s-1.26,1.85-1.57,3.48c-.38,2-.73,3.83-2,3.83s-1.76-.93-2.18-1.76-.73-1.39-1.57-1.39-1.39,2.26-1.8,4.08c-.46,2.05-.82,3.68-1.76,3.68s-1.39-1.09-1.88-2.25-.92-2.17-1.68-2.17-1.48,1.79-2,3.23S137.18,109.69,136.39,109.69Z" style="fill:#7E57C2"></path><path d="M136.39,86.39c.05,5.5.09,11,.09,16.51l0,16.52-.13-.14,20.61,0,10.3,0,10.3.08-10.3.07-10.3,0-20.61,0h-.14v-.13l.05-16.52C136.3,97.4,136.34,91.89,136.39,86.39Z" style="fill:#455a64"></path><rect x="124.73" y="73.58" width="63.47" height="3.9" style="fill:#37474f"></rect><path d="M128.41,75.53a.74.74,0,1,1-.74-.74A.74.74,0,0,1,128.41,75.53Z" style="fill:#c7c7c7"></path><path d="M131.43,75.53a.74.74,0,1,1-.74-.74A.74.74,0,0,1,131.43,75.53Z" style="fill:#fff"></path><path d="M134.45,75.53a.74.74,0,1,1-.74-.74A.74.74,0,0,1,134.45,75.53Z" style="fill:#7E57C2"></path></g></svg>
