<?xml version="1.0" encoding="utf-8"?>
<!-- Generator: Adobe Illustrator 27.5.0, SVG Export Plug-In . SVG Version: 6.00 Build 0)  -->
<svg version="1.1" id="avatar_character" xmlns="http://www.w3.org/2000/svg" xmlns:xlink="http://www.w3.org/1999/xlink" x="0px"
	 y="0px" viewBox="0 0 3000 3000" style="enable-background:new 0 0 3000 3000;" xml:space="preserve">
<path style="fill:#EFE3EC;" d="M1998.773,1328.717c116.126-14.916,227.284-41.47,344.101-39.054
	c126.846,2.624,266.626,45.218,370.345,154.345c114.484,120.453,163.941,303.856,150.3,457
	c-13.701,153.816-82.147,283.244-165.002,393.844c-308.265,411.491-894.401,649.388-1494.647,545.17
	c-363.293-63.077-763.447-295.067-935.601-640.951C60.333,1781.292,142.087,1134.213,435.021,863.083
	c141.101-130.598,368.227-174.032,571.538-64.923c205.273,110.162,344.678,345.484,539.422,459.317
	c137.421,80.325,284.528,89.016,416.275,75.483C1974.491,1331.703,1986.659,1330.273,1998.773,1328.717z"/>
<g>
	<defs>
		<rect id="SVGID_1_" x="456.368" y="565.322" width="2087.264" height="2434.678"/>
	</defs>
	<clipPath id="SVGID_00000047048383406553449620000005687827539740635287_">
		<use xlink:href="#SVGID_1_"  style="overflow:visible;"/>
	</clipPath>
	<g style="clip-path:url(#SVGID_00000047048383406553449620000005687827539740635287_);">
		<path style="fill:#A7604B;" d="M1298.617,2359.216c-41.244-20.667-77.62-49.087-105.955-87.13
			c-87.633-117.654-65.935-280.185-50.541-426.079c18.239-172.858,21.803-347.346,8.766-520.674
			c-6.655-88.483-16.723-182.148,22.234-261.872c34.172-69.932,101.691-118.161,172.679-150.08
			c150.418-67.635,327.891-72.289,481.826-13.289c100.552,62.955,159.284,182.916,173.758,302.135
			c15.83,130.391-12.928,261.697-43.562,389.423c-30.634,127.726-63.573,257.355-56.18,388.495
			c5.411,95.999,31.123,198.864-13.976,283.782c-50.498,95.085-169.638,128.319-276.8,138.691
			C1505.947,2412.773,1390.264,2405.139,1298.617,2359.216z"/>
		<path style="fill:#837A9E;" d="M947.427,3250.292c0,0,133.384-659.15,166.275-759.915
			c32.89-100.764-0.981-335.966-108.732-413.496c-107.751-77.53-201.915,37.458-246.681,162.615
			c-44.766,125.157-177.156,825.165-195.891,924.525c-18.735,99.36,39.47,196.644,165.863,205.501
			C800.612,3374.593,925.044,3312.87,947.427,3250.292z"/>
		<path style="fill:#837A9E;" d="M2033.915,3227.85c0,0-114.922-659.391-145.168-760.64
			c-30.246-101.249,11.372-333.616,123.051-406.749c111.678-73.132,203.63,44.44,245.167,170.339
			c41.537,125.899,154.189,825.831,170.122,925.178c15.932,99.347-46.106,193.874-174.57,198.139
			C2178.979,3356.558,2054.684,3290.799,2033.915,3227.85z"/>
		<g>
			<path style="fill:#F6CCAE;" d="M1759.428,1996.465c-38.339-63.939-65.117-115.887-72.373-174.557
				c-7.251-58.624-6.381-130.284-4.254-201.572h-322.653c2.127,71.287,2.996,142.948-4.254,201.572
				c-7.256,58.67-34.034,110.619-72.373,174.557c0,0,155.903,513.713,238.86,513.713S1759.428,1996.465,1759.428,1996.465z"/>
			<path style="fill:#EB845F;" d="M1682.801,1620.336h-322.653c1.97,66.009,2.847,132.317-2.788,188.32
				c133.136,203.485,332.771,38.121,329.695,13.252C1679.804,1763.283,1680.674,1691.623,1682.801,1620.336z"/>
		</g>
		<path style="fill:#FFFFFF;" d="M1638.964,1512.251c0,0-71.5-12.811-113.094-13.987c-41.596-1.181-112.297,15.698-112.297,15.698
			c-7.352,0.056,31.212,90.643,109.507,90.709C1601.035,1604.753,1643.857,1512.213,1638.964,1512.251z"/>
		<g>
			<path style="fill:#837A9E;" d="M1521.162,2051.632c0,0,160.952-2.565,215.861-167.64
				c104.441,46.545,359.777,200.516,359.777,200.516s-47.66,1144.623-34.201,1187.815c19.936,63.978,47.565,126.841,51.111,193.759
				c1.493,28.164-27.645,74.8-63.806,102.452c-36.161,27.653-330.762,47.317-531.531,39.695
				c-200.769,7.622-510.657-19.437-542.661-41.822s-54.168-72.161-52.675-100.325c3.547-66.918,56.097-140.437,76.033-204.415
				c13.459-43.192-59.123-1177.16-59.123-1177.16s255.337-153.971,359.777-200.516
				C1354.635,2049.067,1521.162,2051.632,1521.162,2051.632z"/>
			<path style="fill:#6D618F;" d="M2083.036,2432.919c-5.267,3.835-10.517,7.707-15.712,11.69
				c-32.362,25.889-19.417,84.141-25.89,129.447c-32.362,265.367,45.307,556.623-122.975,770.21
				c-174.754,213.588-543.678,135.919-796.1,32.362c-38.834-19.417-71.196-64.724-84.141-116.502
				c-60.482-263.919,19.122-551.181-74.574-790.387c19.82,333.16,43.638,765.576,35.426,791.93
				c-19.935,63.978-72.485,137.497-76.032,204.414c-1.492,28.164,20.671,77.94,52.675,100.324
				c32.004,22.386,341.892,49.445,542.661,41.823c200.77,7.622,495.37-12.043,531.531-39.695
				c36.16-27.652,65.298-74.288,63.805-102.452c-3.548-66.918-31.175-129.781-51.112-193.759
				C2054.054,3244.9,2070.146,2773.486,2083.036,2432.919z"/>
		</g>
		<g>
			<path style="fill:#FFFFFF;" d="M1355.49,1875.222c-5.949-10.79-11.505-21.868-16.64-33.203
				c-44.513,26.525-86.746,58.168-125.844,94.295c27.887,105.875,73.38,205.576,133.211,292.224
				c44.667-78.841,110.451-141.747,186.136-177.652C1460.001,2014.13,1397.793,1951.946,1355.49,1875.222z"/>
			<path style="fill:#FFFFFF;" d="M1691.796,1875.222c5.949-10.79,11.505-21.868,16.64-33.203
				c44.513,26.525,86.746,58.168,125.844,94.295c-27.887,105.875-73.38,205.576-133.211,292.224
				c-44.667-78.841-110.451-141.747-186.136-177.652C1587.285,2014.13,1649.493,1951.946,1691.796,1875.222z"/>
		</g>
		<g>
			<path style="fill:#F6CCAE;" d="M1520.116,700.858c185.102,4.768,397.732,67.801,377.229,358.134
				c0,0-57.101,378.269-71.792,443.008c-14.691,64.74-163.429,307.45-307.44,303.74c-154.519-3.98-332.94-255.119-344.279-320.529
				s-53.777-435.216-53.777-435.216C1114.529,758.992,1335.012,696.09,1520.116,700.858z"/>
			<path style="fill:#EFA486;" d="M1232.139,1253.56c152.772-23.871,260.735-111.109,358.511-234.069
				c59.754,71.705,227.292,200.878,269.624,263.698c19.06-119.847,37.071-224.197,37.071-224.197
				c20.503-290.333-192.127-353.366-377.229-358.134c-185.104-4.768-405.587,58.134-400.059,349.138
				c0,0,56.087,367.974,67.425,433.385C1190.66,1501.718,1196.83,1338.301,1232.139,1253.56z"/>
			<g>
				<path style="fill:#E6745D;" d="M1507.987,1304.326c0,0-23.011,126.668-19.09,145.294c8.484,40.301,63.72,29.999,63.72,29.999
					s-30.117-20.479-32.876-42.396C1517.189,1416.949,1507.987,1304.326,1507.987,1304.326z"/>
			</g>
			<g>
				<path style="fill:#F6CCAE;" d="M1220.252,1520.435c-25.781,3.579-61.877-7.864-94.2-32.532
					c-16.233-12.225-31.207-27.598-43.647-45.026c-12.128-17.458-21.468-36.98-26.519-57.2
					c-10.028-40.573-0.609-75.418,17.677-96.787c18.325-21.59,44.405-29.901,70.412-23.585c26.368,6.35,43.018,23.948,56.063,47.247
					C1213.161,1335.917,1246.523,1516.734,1220.252,1520.435z"/>
				<path style="fill:#EB9375;" d="M1179.148,1461.985c0.445,6.182-10.536,9.033-16.8,4.267c-0.063-0.048-0.125-0.095-0.188-0.143
					c-13.04-9.82-25.091-22.328-35.102-36.354c-10.166-14.631-17.81-31.127-21.864-47.355c-8.553-34.6,0.606-61.219,12.032-74.573
					c2.11-2.486,4.139-4.418,5.971-5.901c4.085-3.309,11.773-2.93,15.762,0.846c3.835,3.631,8.817,9.708,14.52,19.894
					c3.496,7.185,12.695,43.294,19.741,88.958C1176.327,1431.761,1178.178,1448.519,1179.148,1461.985z"/>
			</g>
			<g>
				<path style="fill:#F6CCAE;" d="M1797.154,1498.122c25.781,3.579,61.877-7.864,94.2-32.532
					c16.233-12.225,31.207-27.598,43.647-45.026c12.128-17.458,21.468-36.98,26.519-57.2c10.028-40.573,0.609-75.418-17.677-96.787
					c-18.325-21.59-44.405-29.901-70.412-23.585c-26.367,6.35-43.017,23.948-56.063,47.247
					C1804.245,1313.604,1770.883,1494.42,1797.154,1498.122z"/>
				<path style="fill:#EB9375;" d="M1838.258,1439.672c-0.445,6.182,10.536,9.033,16.8,4.267c0.063-0.048,0.125-0.096,0.188-0.144
					c13.04-9.82,25.091-22.328,35.102-36.354c10.166-14.631,17.811-31.127,21.864-47.355c8.553-34.6-0.606-61.219-12.032-74.573
					c-2.11-2.486-4.139-4.417-5.971-5.901c-4.085-3.309-11.773-2.931-15.762,0.846c-3.835,3.631-8.817,9.708-14.52,19.894
					c-3.496,7.185-12.695,43.294-19.741,88.959C1841.079,1409.448,1839.228,1426.206,1838.258,1439.672z"/>
			</g>
			<g>
				<path style="fill:#FFFFFF;" d="M1591.015,1498.188c-21.171-2.881-36.241,8.636-55.735,13.308
					c-36.102,8.653-79.735-24.535-110.454,4.001c-14.53,13.497-16.962,37.76-4.452,51.757
					c18.059,20.207,41.337,27.182,72.905,36.962c10.429,3.231,26.08,3.743,35.87,2.133c35.585-5.854,100.192-23.721,98.51-71.016
					C1626.959,1515.653,1609.779,1500.742,1591.015,1498.188z"/>
			</g>
			<path style="fill:#9F5F4D;" d="M1605.854,1251.53c-4.647-8.404-5.266-13.87,6.1-19.253c12.511-9.489,87.485-4.491,111.432,16.795
				c21.327,18.957,40.526,52.954,24.793,41.404c-16.625-12.206-39.712-20.161-57.309-23.793
				C1657.793,1259.856,1611.066,1260.955,1605.854,1251.53z"/>
			<path style="fill:#9F5F4D;" d="M1421.558,1259.951c5.257-8.432,6.552-14.778-4.88-20.98
				c-12.388-10.513-90.381-8.803-116.261,11.874c-23.049,18.414-44.729,52.502-27.859,41.435
				c17.826-11.695,42.085-18.633,60.443-21.406C1367.507,1265.661,1415.662,1269.408,1421.558,1259.951z"/>
			<g>
				<path style="fill:#2E2C2B;" d="M1356.652,1405.943c-27.585,2.243-31.06-14.253-31.06-14.253
					c-2.97-9.805-4.776-26.823-5.093-39.063c-1.004-38.856,14.033-59.427,33.198-60.985c19.165-1.558,35.2,16.486,36.204,55.342
					c0.316,12.24-0.618,36.061-3.07,46.306C1386.833,1393.291,1384.238,1403.7,1356.652,1405.943z"/>
				<path style="fill:#FFFFFF;" d="M1345.772,1334.996c3.105-1.254,4.801-4.948,3.788-8.252c-1.013-3.304-4.351-4.966-7.456-3.712
					c-3.105,1.254-4.801,4.948-3.788,8.252C1339.329,1334.588,1342.667,1336.25,1345.772,1334.996z"/>
			</g>
			<g>
				<path style="fill:#2E2C2B;" d="M1663.532,1405.04c27.58-2.303,30.152-12.719,30.152-12.719
					c2.43-10.251,3.312-34.074,2.968-46.313c-1.09-38.854-17.165-56.863-36.326-55.262c-19.162,1.6-34.154,22.204-33.064,61.058
					c0.343,12.239,4.426,33.494,7.418,43.292C1634.681,1395.095,1635.952,1407.344,1663.532,1405.04z"/>
				<path style="fill:#FFFFFF;" d="M1646.077,1334.653c-3.158-0.738-5.045-4.137-4.214-7.593c0.831-3.456,4.064-5.66,7.222-4.922
					c3.158,0.738,5.045,4.137,4.214,7.594C1652.469,1333.187,1649.235,1335.391,1646.077,1334.653z"/>
			</g>
			<g>
				<path style="fill:#A7604B;" d="M1491.906,1032.689c-69.069,60.673-208.107,126.741-252.518,207.236
					c-37.879,68.656-30.081,116.18-26.637,239.734c6.031,216.336,158.932,400.977,162.845,617.362
					c1.658,91.701-26.312,196.979,29.665,267.356c-87.861,58.727-183.753,32.913-268.562-28.91
					c-2.368,18.644,7.664,66.299,7.664,66.299s-216.49-210.397-223.119-356.912c-5.279-116.673,36.858-229.429,65.427-342.673
					c46.273-183.416,17.154-417.864,36.094-568.198C1041.705,983.648,1491.906,1032.689,1491.906,1032.689z"/>
				<g>
					<path style="fill:#A7604B;" d="M1475.681,653.247c57.027,1.227,113.623,14.068,164.641,38.816
						c81.005-0.015,163.033,33.364,223.881,88.159c85.495,76.99,132.345,190.209,146.653,304.367
						c8.391,66.949-0.502,139.4-8.259,206.532c-181.589-43.367-334.278-172.407-423.467-335.976
						c-107.354,189.998-319.773,316.978-538.705,317.639c-21.858-88.768-23.416-182.296-0.493-270.625
						c34.714-133.757,127.658-253.301,253.085-311.302C1349.876,664.565,1413.038,651.898,1475.681,653.247z"/>
					<g>
						<path style="fill:#9C513C;" d="M1649.26,724.094c-0.482-17.421-27.611-17.491-27.127,0
							c1.571,56.788-16.687,112.128-51.162,157.224c-4.453,5.824-0.905,15.182,4.866,18.558c6.981,4.083,14.094,0.973,18.557-4.866
							C1631.508,846.462,1650.948,785.134,1649.26,724.094z"/>
						<path style="fill:#9C513C;" d="M1512.218,862.213c-46.109,72.309-116.372,129.205-196.587,159.586
							c-23.091,8.745-46.929,15.345-71.213,19.796c-7.21,1.322-11.293,10.066-9.473,16.685c2.083,7.579,9.454,10.798,16.685,9.473
							c89.772-16.453,173.792-63.154,236.008-129.837c17.847-19.129,33.939-39.955,48.003-62.012
							C1545.055,861.141,1521.587,847.52,1512.218,862.213z"/>
						<path style="fill:#9C513C;" d="M1482.323,686.157c-84.223-4.458-169.973,21.018-238.439,70.22
							c-69.435,49.897-119.351,122.825-141.799,205.301c-12.583,46.232-16.506,94.955-10.657,142.532
							c0.893,7.269,5.594,13.564,13.564,13.564c6.636,0,14.463-6.243,13.563-13.564c-9.748-79.301,8.128-160.506,50.032-228.528
							c41.693-67.681,107.231-118.628,182.408-144.107c42.317-14.342,86.701-20.652,131.329-18.29
							C1499.769,714.208,1499.718,687.078,1482.323,686.157z"/>
						<path style="fill:#9C513C;" d="M1836.955,798.985c-17.077-15.727-36.147-29.355-56.694-40.166
							c-15.437-8.122-29.164,15.283-13.692,23.423c66.46,34.967,113.878,100.149,129.472,173.349
							c4.428,20.787,5.881,41.984,4.738,63.199c-0.94,17.445,26.19,17.393,27.127,0
							C1932.319,936.926,1897.076,854.353,1836.955,798.985z"/>
					</g>
				</g>
				<g>
					<path style="fill:#9C513C;" d="M1193.497,2346.839c-67.328-70.393-89.875-169.191-93.458-263.835
						c-4.223-111.557,18.126-221.686,22.126-332.903c2.414-67.133-2.162-135.163-22.373-199.571
						c-5.21-16.6-31.406-9.512-26.159,7.211c36.387,115.959,19.5,238.999,7.41,357.433
						c-10.437,102.245-16.427,207.822,12.954,307.721c15.637,53.167,40.939,95.15,79.396,135.358
						C1185.486,2370.894,1205.569,2359.462,1193.497,2346.839z"/>
					<path style="fill:#9C513C;" d="M1344.522,2145.158c3.574-47.857,3.203-97.944-13.685-143.526
						c-9.229-24.911-23.043-47.784-42.558-65.995c-12.753-11.901-31.978,7.24-19.181,19.181
						c32.333,30.173,45.427,73.892,48.968,116.894c4.301,52.236-4.754,104.166-6.974,156.264
						c-1.398,32.801,0.16,65.862,8.363,97.777c4.343,16.896,30.513,9.735,26.158-7.211
						C1331.014,2261.742,1340.228,2202.676,1344.522,2145.158z"/>
					<path style="fill:#9C513C;" d="M1029.199,2077.191c-12.536-42.716-14.283-87.86-4.601-131.346
						c3.787-17.008-22.36-24.272-26.158-7.212c-10.726,48.178-9.307,98.377,4.601,145.77
						C1007.946,2101.118,1034.133,2094.005,1029.199,2077.191z"/>
				</g>
			</g>
		</g>
	</g>
</g>
</svg>
